HIERARCHY
ROOT Hips
{
	OFFSET 0.000000 0.000000 0.000000
	CHANNELS 6 Xposition Yposition Zposition Yrotation Xrotation Zrotation
	JOINT Chest
	{
		OFFSET 0.000000 -0.009281 11.569106
		CHANNELS 3 Yrotation Xrotation Zrotation
		JOINT Chest2
		{
			OFFSET -0.000000 0.016865 9.269641
			CHANNELS 3 Yrotation Xrotation Zrotation
			JOINT Chest3
			{
				OFFSET -0.000000 0.000001 8.374491
				CHANNELS 3 Yrotation Xrotation Zrotation
				JOINT Chest4
				{
					OFFSET -0.000000 0.000001 8.374493
					CHANNELS 3 Yrotation Xrotation Zrotation
					JOINT Neck
					{
						OFFSET -0.000000 0.000002 12.152554
						CHANNELS 3 Yrotation Xrotation Zrotation
						JOINT Head
						{
							OFFSET -0.000000 0.040101 7.802319
							CHANNELS 3 Yrotation Xrotation Zrotation
							End Site
							{
								OFFSET -0.000000 0.020947 14.853096
							}
						}
					}
					JOINT RightCollar
					{
						OFFSET 2.894404 0.000001 6.791374
						CHANNELS 3 Yrotation Xrotation Zrotation
						JOINT RightShoulder
						{
							OFFSET 13.574684 0.000001 0.000000
							CHANNELS 3 Yrotation Xrotation Zrotation
							JOINT RightElbow
							{
								OFFSET 23.923903 0.000002 0.000000
								CHANNELS 3 Yrotation Xrotation Zrotation
								JOINT RightWrist
								{
									OFFSET 19.846718 0.012767 0.000000
									CHANNELS 3 Yrotation Xrotation Zrotation
									End Site
									{
										OFFSET 14.973145 0.000001 0.000000
									}
								}
							}
						}
					}
					JOINT LeftCollar
					{
						OFFSET -2.894404 0.000001 6.791374
						CHANNELS 3 Yrotation Xrotation Zrotation
						JOINT LeftShoulder
						{
							OFFSET -13.574684 -0.000001 0.000000
							CHANNELS 3 Yrotation Xrotation Zrotation
							JOINT LeftElbow
							{
								OFFSET -23.923903 -0.000002 0.000000
								CHANNELS 3 Yrotation Xrotation Zrotation
								JOINT LeftWrist
								{
									OFFSET -19.846718 0.012763 0.000000
									CHANNELS 3 Yrotation Xrotation Zrotation
									End Site
									{
										OFFSET -14.973145 -0.000001 0.000000
									}
								}
							}
						}
					}
				}
			}
		}
	}
	JOINT RightHip
	{
		OFFSET 9.469263 0.004643 0.045487
		CHANNELS 3 Yrotation Xrotation Zrotation
		JOINT RightKnee
		{
			OFFSET 0.000000 0.002661 -40.478676
			CHANNELS 3 Yrotation Xrotation Zrotation
			JOINT RightAnkle
			{
				OFFSET 0.000000 0.049106 -35.224068
				CHANNELS 3 Yrotation Xrotation Zrotation
				JOINT RightToe
				{
					OFFSET -0.000001 12.539529 -6.151390
					CHANNELS 3 Yrotation Xrotation Zrotation
					End Site
					{
						OFFSET -0.000001 5.044994 -1.291870
					}
				}
			}
		}
	}
	JOINT LeftHip
	{
		OFFSET -9.469263 0.004641 0.045487
		CHANNELS 3 Yrotation Xrotation Zrotation
		JOINT LeftKnee
		{
			OFFSET 0.000000 0.002661 -40.478676
			CHANNELS 3 Yrotation Xrotation Zrotation
			JOINT LeftAnkle
			{
				OFFSET 0.000000 0.049106 -35.224068
				CHANNELS 3 Yrotation Xrotation Zrotation
				JOINT LeftToe
				{
					OFFSET -0.000001 12.539529 -6.151390
					CHANNELS 3 Yrotation Xrotation Zrotation
					End Site
					{
						OFFSET -0.000001 5.044994 -1.291870
					}
				}
			}
		}
	}
}
MOTION
Frames: 15
Frame Time: 0.016667
35.393772 -2.192820 83.183235 0.146473 6.567404 -88.830469 -2.921775 -8.004609 1.607510 -1.284030 -3.664170 0.561479 -1.284030 -3.664171 0.561479 -0.959325 -2.749325 0.413260 2.022485 -23.982275 -1.073907 3.358633 -8.348264 -1.414277 5.825259 5.910771 -3.440127 65.000492 39.810768 57.678455 17.965590 4.859809 62.830821 -56.261433 32.434489 20.161941 -10.301314 8.231246 -4.443123 -47.920051 20.840451 10.276936 -21.592712 -48.824999 -26.455937 25.863133 4.033164 -36.658052 -2.178171 7.322931 -12.838817 7.177924 -11.339862 -13.221404 -5.325922 5.962623 9.207791 -0.157153 0.003124 0.163117 17.104986 37.877794 20.021564 -5.428598 -19.554283 33.268158 -2.539244 -0.431711 2.982996 4.536286 -3.903631 -0.699662 
35.351910 -2.263461 83.065163 -0.083665 6.467709 -88.833741 -2.859524 -8.212353 1.735170 -1.264197 -3.728257 0.650473 -1.264197 -3.728257 0.650472 -0.943840 -2.797555 0.479963 2.042012 -23.914237 -1.175246 3.367686 -8.220205 -1.589930 6.058292 5.644164 -3.282399 65.338307 39.103349 58.526347 17.443414 4.516378 62.710835 -56.068439 32.548409 20.779027 -10.213118 8.505433 -4.375590 -46.382589 20.766096 11.882221 -22.230627 -50.017124 -27.272305 26.054930 4.084919 -37.094737 -2.207260 7.579209 -12.931735 7.423850 -12.366036 -13.154983 -5.535653 6.522400 8.979632 -0.033790 0.010716 0.148699 17.044577 37.613466 19.686726 -5.193957 -18.671196 33.303473 -2.965849 -0.426071 3.237402 4.158177 -3.554650 -0.630429 
35.317932 -2.342127 82.931084 -0.323156 6.360067 -88.884141 -2.807142 -8.423992 1.905639 -1.240234 -3.795798 0.742887 -1.240234 -3.795799 0.742887 -0.925217 -2.848378 0.549251 2.069855 -23.854256 -1.283819 3.389705 -8.107073 -1.776649 6.301886 5.404020 -3.174870 65.623966 38.375032 59.265879 16.962987 4.158931 62.605500 -55.973110 32.763185 21.303297 -10.124821 8.678991 -4.337459 -44.882689 20.587942 13.367962 -22.914231 -51.046416 -28.009872 26.163371 4.072463 -37.726591 -2.238798 7.832871 -13.128483 7.669184 -13.454264 -12.989020 -5.819313 7.111006 8.831435 0.113218 0.021791 0.140122 16.998109 37.278199 19.485739 -4.929520 -17.873497 33.196765 -3.395059 -0.403327 3.485709 3.791786 -3.204472 -0.565159 
35.283577 -2.411448 82.779762 -0.545416 6.254487 -88.956445 -2.759232 -8.609291 2.074986 -1.208651 -3.860643 0.829922 -1.208650 -3.860644 0.829922 -0.900897 -2.897142 0.614564 2.095523 -23.806682 -1.389769 3.408416 -8.017049 -1.959481 6.516404 5.123312 -3.032630 65.913013 37.692068 59.946002 16.543594 3.799148 62.501217 -55.864889 33.038175 21.756323 -10.106928 8.971386 -4.261619 -43.310325 20.226068 14.926354 -23.475376 -52.108244 -28.793841 26.188123 4.065936 -38.608990 -2.303608 8.182988 -13.371530 7.932071 -14.702392 -12.711364 -6.197234 7.724937 8.641190 0.283636 0.059653 0.121189 16.946857 36.912248 19.433550 -4.657286 -17.171693 33.032612 -3.769402 -0.367516 3.704529 3.423218 -2.840171 -0.509463 
35.236912 -2.465405 82.609489 -0.751141 6.162401 -89.025007 -2.701809 -8.776132 2.211436 -1.170806 -3.927122 0.906034 -1.170806 -3.927125 0.906034 -0.871933 -2.947096 0.671729 2.109656 -23.764028 -1.488251 3.408244 -7.936316 -2.131983 6.712593 4.705042 -2.779757 66.230288 37.121409 60.690766 16.094185 3.450959 62.339150 -55.711138 33.232951 22.229182 -10.085383 9.282435 -4.095067 -41.803094 19.794168 16.413803 -23.808842 -53.335267 -29.711217 26.145891 4.281091 -39.513000 -2.427630 8.621001 -13.617561 8.255236 -16.080767 -12.443335 -6.675108 8.348848 8.396514 0.464452 0.131460 0.085883 16.840820 36.545631 19.479725 -4.361308 -16.568311 32.870822 -4.085353 -0.355602 3.817876 3.053676 -2.449815 -0.454079 
35.184559 -2.511336 82.420517 -0.965577 6.076810 -89.097058 -2.638919 -8.946824 2.355838 -1.135880 -4.001057 0.978440 -1.135880 -4.001056 0.978440 -0.845151 -3.002629 0.726087 2.129925 -23.719364 -1.590058 3.418123 -7.851870 -2.308874 6.817345 4.402632 -2.625290 66.568608 36.428865 61.294193 15.535048 3.097312 62.130331 -55.508988 33.284649 22.764889 -9.988779 9.531061 -3.955034 -40.330700 19.596445 17.855419 -24.166312 -54.865243 -30.555845 26.137770 4.574366 -40.296088 -2.577916 9.085628 -13.984379 8.557192 -17.560748 -12.076084 -7.218248 9.030956 8.167889 0.656439 0.178472 0.079113 16.676680 36.173894 19.574286 -4.045491 -16.068867 32.706750 -4.340728 -0.313420 3.859559 2.686257 -2.091163 -0.410625 
35.155785 -2.575086 82.218132 -1.190313 5.984645 -89.124188 -2.529907 -9.125006 2.464494 -1.096330 -4.071085 1.044050 -1.096329 -4.071086 1.044050 -0.814939 -3.055207 0.775396 2.144852 -23.691983 -1.699878 3.416388 -7.799470 -2.501881 6.956025 4.319459 -2.676986 66.729726 35.531078 61.630204 14.994777 2.707050 61.937043 -55.247850 33.290725 23.365027 -9.874103 9.600085 -3.852435 -38.859231 19.707748 19.189946 -24.777008 -56.632961 -31.139355 26.140290 4.791998 -40.926825 -2.652545 9.485241 -14.505138 8.728571 -18.987280 -11.594823 -7.792308 9.724572 7.935813 0.843976 0.198031 0.091092 16.463387 35.815716 19.566733 -3.767962 -15.650909 32.615707 -4.559944 -0.257429 3.868978 2.355539 -1.757640 -0.380416 
35.175007 -2.630183 82.009041 -1.450281 5.899106 -89.102324 -2.409125 -9.323133 2.519190 -1.051598 -4.134655 1.099184 -1.051598 -4.134656 1.099184 -0.780911 -3.102902 0.816907 2.154076 -23.698110 -1.803906 3.406175 -7.809446 -2.686548 7.169073 3.961534 -2.520088 66.986302 34.961833 62.156443 14.470458 2.263060 61.693554 -55.054374 33.363719 23.921469 -9.840461 9.736068 -3.737437 -37.268869 19.747706 20.482580 -25.708012 -58.395761 -31.403755 25.983682 4.816387 -41.571905 -2.751016 9.804392 -15.083199 8.871255 -20.421081 -11.139215 -8.306745 10.501249 7.615639 0.977363 0.166245 0.083069 16.173475 35.419742 19.435102 -3.514101 -15.263507 32.590265 -4.722831 -0.183519 3.914748 2.050951 -1.466285 -0.361902 
35.206345 -2.672049 81.790344 -1.674137 5.804622 -89.101860 -2.295142 -9.474856 2.596185 -0.998232 -4.192036 1.149650 -0.998232 -4.192036 1.149650 -0.740445 -3.145924 0.854996 2.156711 -23.727271 -1.900608 3.386304 -7.862413 -2.860133 7.340001 3.330949 -2.329261 67.443672 34.534666 62.916779 14.004924 1.804921 61.417676 -55.063465 33.578709 24.315240 -9.880493 9.990275 -3.595632 -35.633066 19.580470 21.708447 -26.774266 -60.070298 -31.466186 25.652162 4.559299 -42.407681 -2.871625 10.221706 -15.395795 9.083185 -21.954052 -10.868687 -8.759078 11.246413 7.267113 1.037005 0.195584 0.058432 15.918878 35.005536 19.268081 -3.324670 -14.865236 32.662354 -4.864415 -0.114081 3.912720 1.794130 -1.208179 -0.319050 
35.213337 -2.708594 81.551399 -1.846603 5.683024 -89.175203 -2.176444 -9.558908 2.735619 -0.929666 -4.242171 1.195380 -0.929666 -4.242172 1.195381 -0.688622 -3.183469 0.889664 2.138703 -23.763458 -1.984203 3.332878 -7.928788 -3.015555 7.455960 2.740595 -2.187796 67.861003 34.066460 63.545608 13.660739 1.351343 61.119647 -55.142091 33.818852 24.652350 -9.908016 10.217078 -3.421810 -34.181371 19.262575 22.793513 -27.559291 -61.656862 -31.687799 25.229327 4.141152 -43.470066 -2.941373 10.806254 -15.210449 9.423094 -23.566475 -10.937904 -9.203682 11.928337 6.769404 1.057695 0.289330 0.056967 15.732767 34.600973 19.127137 -3.164407 -14.506521 32.818465 -4.980987 -0.026610 3.859444 1.554900 -0.979266 -0.263141 
35.195004 -2.736121 81.284943 -2.037272 5.511844 -89.246598 -2.015150 -9.652598 2.863957 -0.844148 -4.293173 1.244152 -0.844148 -4.293173 1.244152 -0.624063 -3.221620 0.926739 2.111131 -23.785864 -2.068532 3.261971 -7.969752 -3.174496 7.558594 2.338960 -2.027412 68.096364 33.622887 63.861715 13.426152 0.896734 60.832813 -55.140305 33.977483 25.035712 -9.913057 10.434984 -3.240869 -33.022933 18.732736 23.770841 -27.638687 -63.234513 -32.538273 24.977384 3.696672 -44.607887 -3.027763 11.399714 -14.817732 9.979209 -25.176815 -11.350176 -9.634809 12.643274 6.383149 1.044882 0.347240 0.047691 15.634528 34.210888 18.899765 -3.077609 -14.259573 33.055681 -5.018022 0.108942 3.916381 1.303337 -0.778472 -0.216096 
35.163933 -2.736951 80.992126 -2.242229 5.320214 -89.321396 -1.859515 -9.768551 3.010020 -0.761205 -4.351258 1.301756 -0.761205 -4.351258 1.301757 -0.561349 -3.265089 0.970420 2.108920 -23.782977 -2.160626 3.234305 -7.963610 -3.340475 7.671733 1.979287 -1.950835 68.318612 33.178566 64.079011 13.239766 0.457374 60.589645 -54.939347 34.127303 25.519788 -9.870398 10.637848 -3.143688 -32.072150 18.025810 24.668572 -27.041704 -64.774400 -34.076814 24.784666 3.482058 -45.701465 -3.134004 11.954621 -14.497136 10.597061 -26.735278 -11.850631 -10.019571 13.368974 6.106232 1.003854 0.370974 0.020860 15.629882 33.801612 18.770905 -3.061766 -14.063078 33.276654 -5.085343 0.205432 3.904512 1.125315 -0.568946 -0.184819 
35.143639 -2.735332 80.677094 -2.457730 5.095707 -89.367179 -1.673414 -9.907422 3.109272 -0.682238 -4.406556 1.360934 -0.682238 -4.406558 1.360935 -0.501600 -3.306461 1.015271 2.114135 -23.775545 -2.248359 3.221016 -7.949078 -3.496652 7.782131 1.697534 -1.894626 68.526605 32.723935 64.142949 13.077625 0.031641 60.418289 -54.579485 34.227478 26.089272 -9.790176 10.754380 -3.062648 -31.229831 17.261000 25.447524 -26.264458 -66.281727 -35.866450 24.445440 3.468683 -46.818734 -3.169205 12.463660 -14.314488 11.131818 -28.259078 -12.336592 -10.354864 14.164435 5.908312 0.965356 0.333867 0.001107 15.686059 33.357640 18.750032 -3.072129 -13.837474 33.509154 -5.131820 0.277522 3.895595 1.004321 -0.396217 -0.173842 
35.130398 -2.716539 80.347115 -2.667464 4.873004 -89.458416 -1.504949 -10.040119 3.215418 -0.606479 -4.457959 1.416772 -0.606479 -4.457962 1.416772 -0.444279 -3.344899 1.057610 2.107534 -23.774302 -2.315605 3.191858 -7.946382 -3.619148 7.842866 1.288207 -1.812708 68.895203 32.300350 64.273637 12.899895 -0.356634 60.312175 -54.303173 34.323927 26.635016 -9.782585 10.890858 -3.057851 -30.331064 16.489952 26.195895 -25.730347 -67.675085 -37.427695 23.870417 3.352415 -48.158568 -3.202830 12.990850 -14.051028 11.695157 -29.791991 -12.819544 -10.673943 14.943619 5.645413 0.924035 0.306921 -0.016647 15.775821 32.863827 18.895290 -3.066216 -13.549014 33.786268 -5.170577 0.290939 3.823207 0.927678 -0.243473 -0.168343 
35.119774 -2.718420 80.007080 -2.857778 4.597595 -89.592787 -1.308320 -10.152039 3.333168 -0.525417 -4.501476 1.476172 -0.525418 -4.501478 1.476173 -0.382971 -3.377400 1.102683 2.084375 -23.780630 -2.371907 3.135904 -7.958073 -3.726342 7.894939 0.592110 -1.692193 69.427944 31.971538 64.648171 12.710349 -0.678490 60.241770 -54.224233 34.498630 27.052323 -9.823644 11.090966 -3.046214 -29.487948 15.686300 26.876091 -25.071237 -69.054210 -39.025099 23.495718 2.829920 -49.684773 -3.077518 13.545823 -13.741787 12.157960 -31.292641 -13.192724 -11.014926 15.683270 5.215590 0.903033 0.283915 0.006427 15.952762 32.362577 19.149405 -3.046799 -13.251932 34.105074 -5.185141 0.297069 3.742165 0.857053 -0.127078 -0.166254 
